<?xml version="1.0" standalone="no"?>
<!DOCTYPE svg PUBLIC "-//W3C//DTD SVG 20010904//EN"
 "http://www.w3.org/TR/2001/REC-SVG-20010904/DTD/svg10.dtd">
<svg version="1.0" xmlns="http://www.w3.org/2000/svg"
 width="128.000000pt" height="128.000000pt" viewBox="0 0 128.000000 128.000000"
 preserveAspectRatio="xMidYMid meet">
<metadata>
Created by potrace 1.10, written by Peter Selinger 2001-2011
</metadata>
<g transform="translate(0.000000,128.000000) scale(0.100000,-0.100000)"
fill="#000000" stroke="none">
<path d="M487 1151 c-8 -9 -22 -30 -32 -48 -10 -18 -22 -30 -27 -27 -4 3 -5
-1 -3 -9 8 -20 -51 -134 -98 -190 -38 -45 -105 -99 -155 -126 -41 -22 -22 -3
53 53 41 31 77 61 80 67 7 10 -179 -127 -262 -193 -39 -31 -41 -36 -38 -77 4
-46 34 -78 68 -73 9 2 17 -1 17 -7 0 -6 9 -10 19 -8 11 1 21 -2 22 -8 4 -19
33 -34 41 -22 5 9 10 9 20 -1 9 -9 9 -12 -1 -12 -7 0 -10 -4 -6 -10 3 -5 12
-7 20 -3 9 3 15 -1 15 -11 0 -9 8 -16 20 -16 12 0 24 -9 29 -22 5 -13 19 -32
31 -43 32 -28 100 -122 100 -137 0 -7 13 -36 29 -64 l30 -51 58 10 c68 11 95
32 113 90 8 23 24 55 37 70 13 16 23 34 23 41 0 13 97 106 110 106 3 0 17 11
30 25 30 32 165 105 193 105 17 0 19 -3 8 -9 -7 -5 -10 -14 -7 -20 4 -6 11 -9
16 -6 14 9 23 -41 13 -72 -5 -15 -31 -43 -58 -62 -41 -28 -60 -35 -117 -39
-57 -4 -68 -2 -68 11 0 8 -6 17 -12 20 -16 5 -69 -33 -62 -44 2 -4 -1 -11 -7
-15 -8 -4 -9 -3 -5 4 4 7 2 12 -3 12 -6 0 -11 -4 -11 -8 0 -5 -13 -28 -29 -53
-33 -51 -44 -88 -31 -108 7 -12 11 -12 23 -2 11 9 70 11 225 9 116 -2 208 0
206 4 -2 3 21 22 51 42 30 21 59 45 65 55 5 11 9 114 9 242 0 123 1 229 1 234
1 6 1 54 1 108 0 114 -18 163 -81 223 l-38 36 -218 0 c-192 0 -219 -2 -230
-17 -13 -18 -30 -3 -18 17 4 7 3 8 -4 4 -15 -9 -16 -46 -2 -46 6 0 10 -6 10
-12 -1 -7 -11 -2 -23 13 -34 39 -76 61 -108 57 -22 -4 -26 -2 -18 8 6 7 16 11
24 8 7 -3 15 -2 18 3 10 16 -42 11 -56 -6z m19 -39 c-3 -5 8 -7 23 -4 24 3 32
-2 50 -32 13 -20 27 -36 32 -36 4 0 6 -13 3 -30 -4 -19 -2 -30 5 -30 6 0 11
-7 11 -15 0 -8 4 -15 9 -15 5 0 12 -11 15 -25 4 -14 16 -36 27 -48 65 -70 115
-117 126 -117 6 0 13 -4 15 -10 5 -16 138 -30 265 -27 l122 2 0 -213 0 -212
-32 -30 c-18 -16 -41 -30 -51 -30 -11 0 -16 -3 -13 -7 4 -3 -1 -12 -11 -19
-13 -10 -68 -13 -219 -14 l-203 0 0 25 c0 14 11 37 25 50 31 32 55 33 29 3
l-19 -23 26 23 c29 25 59 29 59 7 0 -8 -8 -15 -19 -15 -10 0 -30 -6 -44 -13
-22 -12 -16 -13 58 -15 45 -1 95 2 109 8 15 5 25 6 22 1 -3 -5 15 -9 40 -9 56
-2 121 29 134 62 11 31 30 42 41 25 5 -8 3 -17 -4 -21 -7 -4 -8 -8 -3 -8 5 0
3 -7 -4 -15 -10 -12 -10 -15 1 -15 18 0 59 40 59 59 0 12 -3 11 -13 -4 -21
-27 -29 -4 -27 73 3 126 5 142 12 142 5 0 8 -4 8 -10 0 -5 5 -10 10 -10 18 0
11 33 -12 59 -13 14 -15 19 -5 12 15 -12 17 -10 17 17 0 17 -5 34 -12 38 -8 5
-9 2 -5 -10 4 -11 3 -15 -4 -11 -6 4 -8 14 -5 22 3 8 1 23 -4 34 -9 15 -15 17
-30 9 -11 -6 -20 -7 -20 -3 0 4 -5 2 -12 -5 -8 -8 -15 -8 -24 -1 -8 7 -14 7
-19 -1 -3 -5 -11 -10 -16 -10 -6 0 -7 5 -3 11 4 8 0 8 -15 0 -11 -6 -39 -13
-61 -15 -32 -3 -40 0 -36 10 3 8 1 14 -4 14 -6 0 -10 -4 -10 -10 0 -5 -7 -10
-16 -10 -8 0 -12 5 -8 11 4 8 1 8 -13 1 -11 -6 -33 -10 -50 -10 -16 1 -35 -2
-41 -6 -6 -3 -13 -2 -17 4 -6 10 6 14 100 28 57 9 58 9 17 11 -24 0 -63 -4
-88 -10 -36 -9 -44 -15 -44 -35 0 -29 40 -60 55 -42 7 10 56 14 179 15 l168 2
-6 -22 c-3 -14 2 -30 17 -46 12 -14 15 -20 6 -13 -21 15 -28 1 -25 -47 2 -22
-2 -30 -11 -27 -10 4 -10 1 -1 -13 18 -30 -10 -103 -48 -121 -17 -9 -43 -26
-59 -38 -18 -14 -40 -22 -64 -21 -33 1 -34 2 -11 9 16 5 -13 8 -82 9 -60 1
-108 5 -108 9 0 22 23 29 63 20 54 -12 173 -4 170 11 -3 13 72 65 84 58 5 -3
15 -2 23 4 10 6 11 9 3 9 -9 0 -13 22 -13 76 0 47 4 73 10 69 6 -3 7 1 4 10
-4 9 -14 13 -23 11 -9 -3 -34 -6 -56 -8 -22 -1 -49 -11 -60 -21 -10 -9 -25
-15 -32 -13 -7 3 -13 1 -13 -4 0 -6 -18 -18 -40 -27 -22 -10 -40 -21 -40 -25
0 -5 -7 -8 -15 -8 -8 0 -15 -7 -15 -15 0 -10 -10 -15 -26 -15 -24 0 -74 -42
-74 -62 0 -5 -15 -24 -34 -44 -19 -20 -32 -43 -29 -50 3 -8 -2 -16 -10 -20 -9
-3 -18 -23 -22 -45 -10 -56 -32 -77 -85 -81 l-44 -3 -28 55 c-15 30 -25 60
-23 66 2 7 -7 22 -21 35 -13 12 -24 28 -24 34 0 10 -84 100 -125 134 -10 8
-37 24 -61 36 -37 19 -42 24 -30 34 11 10 17 8 25 -6 9 -16 10 -16 11 -1 0 25
-19 32 -46 18 -18 -10 -27 -10 -37 -1 -8 6 -21 9 -30 6 -9 -4 -26 7 -45 30
l-29 37 27 30 c16 17 33 27 39 23 7 -4 10 -1 9 7 -2 7 5 12 14 12 10 -1 15 2
12 7 -3 5 2 9 10 9 27 0 27 -19 -1 -34 -46 -23 -66 -51 -54 -74 6 -11 7 -22 3
-26 -3 -4 2 -4 11 0 16 6 16 8 3 23 -13 14 -13 19 2 37 9 11 29 28 45 37 15
10 27 24 27 32 0 14 12 19 33 16 4 0 7 6 7 15 0 8 5 12 10 9 6 -3 10 0 10 8 0
19 27 30 34 14 2 -7 5 -5 5 4 1 9 16 28 33 42 18 13 47 43 63 66 17 22 36 41
44 41 8 0 11 7 8 20 -3 12 0 20 8 20 8 0 11 8 8 20 -3 11 -1 20 5 20 5 0 12
10 15 22 4 12 9 19 13 15 4 -3 -1 -32 -11 -62 -9 -31 -14 -59 -11 -62 3 -4 6
1 6 11 0 9 4 15 8 12 5 -3 21 3 37 14 15 10 35 16 43 12 10 -3 13 -1 8 6 -4 7
-2 10 6 7 8 -3 14 2 15 12 1 10 5 32 9 48 l7 30 -33 -34 c-26 -26 -34 -30 -42
-20 -7 10 -8 8 -3 -8 4 -15 -1 -29 -16 -44 -29 -29 -37 -10 -15 35 9 19 16 39
16 45 0 5 10 19 22 31 18 16 19 20 6 20 -9 0 -20 -9 -23 -20 -7 -21 -20 -26
-29 -11 -7 10 31 61 45 61 6 0 8 -4 5 -8z m607 -37 c15 -19 34 -35 42 -35 8 0
15 -4 15 -10 0 -10 -14 -14 -37 -11 -8 1 -13 -9 -13 -24 0 -27 14 -34 24 -10
7 20 22 19 46 -5 17 -17 20 -33 20 -124 l0 -104 -66 -7 c-51 -5 -69 -4 -75 7
-10 16 -8 108 3 114 14 9 9 24 -6 18 -8 -3 -17 -1 -21 5 -3 6 1 14 9 17 26 10
18 27 -9 20 -23 -6 -25 -4 -19 19 6 24 4 25 -27 19 -19 -3 -40 -8 -48 -10 -8
-3 -11 1 -8 10 5 12 1 13 -19 6 -14 -6 -58 -10 -99 -9 l-73 1 -42 51 c-33 42
-38 52 -26 59 24 14 57 -12 45 -34 -7 -14 -6 -18 6 -18 8 0 15 6 15 14 0 7 6
19 14 25 11 9 15 8 20 -4 4 -11 17 -15 51 -13 25 2 45 6 45 9 0 4 6 9 13 12
11 4 13 -4 10 -35 -4 -36 -2 -40 14 -32 35 15 111 5 149 -21 20 -14 44 -25 53
-24 11 0 8 3 -6 9 -13 5 -23 12 -23 15 0 4 5 3 10 0 6 -3 10 -1 10 4 0 6 -5
11 -11 11 -5 0 -7 5 -4 10 3 6 0 10 -8 10 -8 0 -18 8 -21 17 -4 10 -10 13 -14
8 -4 -6 -16 -11 -27 -12 -11 -1 -14 0 -7 3 6 3 12 11 12 19 0 7 6 18 14 24 12
10 18 7 30 -18 11 -20 21 -28 31 -25 19 8 19 6 -10 38 l-24 26 -196 0 c-123 0
-195 4 -195 10 0 6 74 10 203 10 l202 0 28 -35z m-110 -3 c10 -16 -32 -52 -60
-52 l-28 1 35 16 c22 9 30 17 21 20 -11 5 -11 7 0 14 17 11 26 11 32 1z m-337
-57 c0 -5 7 -9 18 -7 10 2 15 -1 12 -7 -4 -6 -2 -18 3 -28 5 -10 12 -26 15
-37 5 -14 9 -16 20 -6 15 11 196 21 196 10 0 -3 16 -4 37 -2 31 4 35 2 30 -12
-4 -11 3 -31 17 -52 16 -23 26 -31 29 -22 3 7 6 -8 6 -33 1 -63 -14 -74 -100
-73 -61 0 -71 4 -93 27 -27 29 -47 37 -25 10 12 -14 12 -15 -2 -7 -30 17 -119
102 -119 113 0 21 -32 61 -43 54 -5 -3 -7 -1 -3 5 3 6 2 13 -4 17 -5 3 -10 17
-10 29 0 13 -10 36 -22 52 l-23 29 31 -25 c18 -14 31 -29 30 -35z"/>
<path d="M550 943 c0 -7 4 -13 10 -13 5 0 7 -7 4 -15 -4 -8 -10 -12 -15 -9 -5
3 -9 -4 -9 -15 0 -18 3 -20 19 -9 11 7 17 17 14 23 -3 5 2 2 13 -7 15 -14 16
-20 5 -30 -10 -11 -11 -9 -6 7 6 16 5 17 -4 5 -16 -22 -13 -30 8 -30 10 0 26
-10 35 -22 16 -22 16 -22 10 17 -4 21 -18 51 -30 64 -13 14 -24 31 -24 37 0 6
-7 11 -15 11 -8 0 -15 -6 -15 -14z"/>
<path d="M460 910 c-20 -18 -29 -33 -24 -41 4 -7 3 -10 -3 -6 -6 4 -14 0 -17
-9 -4 -11 -1 -14 13 -9 11 3 34 -4 56 -16 27 -16 39 -19 48 -10 20 20 39 13
31 -11 -3 -13 -3 -20 1 -16 4 4 16 3 25 -2 24 -13 36 18 15 39 -10 10 -15 11
-15 3 0 -9 -5 -9 -22 0 -36 21 -58 40 -53 48 3 4 -4 10 -14 13 -27 7 -17 -17
16 -38 34 -23 16 -41 -21 -21 -17 9 -23 16 -14 18 10 4 9 10 -4 25 -24 26 -23
28 9 31 33 3 34 4 18 19 -10 9 -20 6 -45 -17z"/>
<path d="M375 864 c-9 -15 -38 -47 -64 -71 -25 -25 -36 -40 -25 -34 24 12 114
108 114 122 0 15 -7 10 -25 -17z"/>
<path d="M394 819 c2 -14 10 -23 19 -23 9 1 14 -5 12 -16 -2 -9 1 -23 6 -31 7
-12 9 -12 10 1 1 8 0 22 -1 29 -1 13 1 13 14 2 27 -22 18 4 -9 27 -14 12 -25
19 -25 16 0 -4 -7 -1 -15 6 -13 11 -15 9 -11 -11z"/>
<path d="M651 808 c1 -29 14 -47 28 -39 10 7 11 13 2 30 -13 23 -31 28 -30 9z"/>
<path d="M710 805 c0 -6 7 -19 15 -29 14 -19 12 -36 -5 -36 -5 0 -7 7 -4 15 8
20 -10 19 -26 0 -7 -9 -15 -13 -18 -10 -3 3 -22 -13 -43 -36 -21 -23 -39 -36
-43 -30 -10 16 -34 2 -31 -17 2 -9 4 -18 5 -19 2 -2 3 -7 4 -12 0 -5 5 -13 10
-18 6 -5 6 -2 1 6 -6 11 -4 13 10 7 18 -6 18 -6 -1 15 -10 12 -14 20 -8 16 6
-3 25 9 43 27 25 26 37 32 62 28 25 -4 30 -8 25 -26 -3 -12 -1 -28 4 -36 7
-11 10 -1 10 33 0 26 5 47 10 47 6 0 10 -4 10 -10 0 -5 4 -10 10 -10 17 0 4
61 -18 83 -12 12 -22 17 -22 12z"/>
<path d="M359 781 c-6 -40 -4 -49 7 -44 7 2 10 12 7 21 -5 14 -3 15 7 5 10
-10 11 -18 3 -35 -14 -29 -13 -55 3 -55 12 0 15 29 8 83 -3 19 -10 31 -19 31
-8 0 -15 -3 -16 -6z"/>
<path d="M495 780 c-6 -9 11 -50 21 -50 3 0 2 6 -2 13 -4 6 2 4 13 -6 17 -15
21 -16 26 -3 8 21 -46 65 -58 46z"/>
<path d="M277 720 c-32 -28 -65 -50 -73 -50 -9 0 -12 -4 -9 -10 3 -5 2 -10 -4
-10 -5 0 -12 6 -14 13 -4 9 -6 9 -6 -1 -1 -7 6 -24 15 -38 9 -13 14 -27 11
-30 -3 -3 -8 4 -12 15 -3 12 -11 19 -16 15 -6 -3 -5 -12 3 -22 12 -15 11 -16
-4 -3 -10 7 -18 9 -18 4 0 -16 22 -32 37 -26 7 3 24 -3 36 -13 18 -16 20 -16
8 -1 -12 15 -11 17 10 18 13 0 18 3 12 6 -7 2 -13 11 -13 18 0 7 -7 15 -15 19
-18 6 -9 36 11 36 8 0 11 -7 8 -17 -5 -14 -4 -15 4 -4 8 11 11 11 16 0 3 -8 3
-4 0 9 -7 30 12 28 32 -3 16 -25 44 -34 44 -15 0 5 -6 7 -13 5 -16 -7 -38 30
-31 50 6 14 9 14 30 0 13 -8 24 -11 24 -5 0 5 -5 10 -11 10 -6 0 -9 7 -6 15 4
8 2 17 -3 20 -6 4 -10 1 -10 -6 0 -7 -3 -10 -6 -7 -3 4 2 18 11 32 10 14 16
26 14 26 -2 0 -30 -23 -62 -50z"/>
<path d="M413 733 c4 -6 3 -14 -3 -18 -18 -11 -11 -25 13 -22 12 1 24 5 27 9
8 10 47 -24 54 -48 5 -17 1 -23 -16 -27 -12 -4 -19 -9 -16 -12 3 -4 20 1 38
10 l31 16 -25 26 c-14 14 -26 30 -26 36 0 6 -3 7 -7 4 -3 -4 -15 0 -25 10 -10
9 -18 13 -18 8 0 -4 -8 -1 -17 6 -10 8 -14 9 -10 2z"/>
<path d="M621 665 c1 -5 0 -12 -1 -15 -1 -3 -3 -13 -5 -24 -2 -10 -12 -24 -22
-31 -47 -34 -58 -45 -40 -39 32 11 17 -5 -23 -26 -22 -11 -40 -23 -40 -26 0
-3 21 6 46 20 52 29 58 31 48 14 -5 -7 -3 -8 6 -3 10 6 10 11 -4 20 -15 11
-13 15 18 39 42 31 45 32 43 6 -1 -11 -7 -19 -15 -17 -8 1 -16 -6 -17 -15 -4
-22 -5 -23 31 5 24 18 29 28 26 60 -3 36 -22 54 -22 20 0 -15 -2 -14 -15 3 -8
10 -15 15 -14 9z"/>
<path d="M113 631 c-19 -16 -20 -20 -7 -25 22 -9 24 -8 24 9 0 8 5 14 11 13 6
-2 14 3 16 10 7 18 -19 14 -44 -7z"/>
<path d="M425 631 c2 -9 4 -18 5 -21 1 -3 2 -8 1 -12 0 -4 7 -4 16 -1 11 4 13
8 5 11 -10 3 -10 7 -1 18 6 8 10 14 8 15 -33 6 -37 5 -34 -10z"/>
<path d="M694 619 c-17 -7 -17 -8 -1 -8 21 -1 22 -14 2 -31 -8 -7 -13 -16 -10
-20 3 -5 0 -12 -6 -16 -8 -5 -9 -3 -4 6 10 16 5 14 -77 -34 -37 -22 -65 -43
-62 -48 3 -4 -1 -5 -9 -2 -8 3 -20 -2 -27 -10 -7 -9 -16 -13 -21 -10 -10 6
-12 -9 -3 -19 4 -3 15 4 25 16 l18 22 -6 -24 c-6 -22 -4 -23 18 -11 37 20 74
51 74 62 0 6 11 19 25 29 20 15 32 17 57 10 27 -8 31 -7 26 7 -4 13 -3 14 5 3
12 -17 63 -23 80 -9 9 8 16 8 24 0 7 -7 20 -6 44 6 37 17 44 32 17 33 -10 0
-26 2 -36 4 -11 2 -16 -1 -14 -8 3 -7 10 -11 16 -9 6 1 11 -2 11 -8 0 -14 -11
-12 -34 5 -11 8 -27 15 -37 15 -9 0 -30 13 -47 28 -21 20 -35 26 -48 21z"/>
<path d="M524 607 c-12 -7 -20 -19 -19 -28 2 -12 -3 -15 -17 -11 -15 4 -17 7
-6 13 25 17 -3 9 -42 -11 -29 -15 -38 -25 -33 -36 5 -14 8 -12 19 7 12 21 19
19 15 -3 0 -4 9 -6 22 -6 27 2 59 27 50 41 -4 6 0 8 11 4 10 -4 15 -3 11 3 -3
6 -2 10 3 10 5 0 9 7 9 15 0 8 -1 15 -1 15 -1 -1 -11 -6 -22 -13z"/>
<path d="M314 581 c4 -6 0 -11 -10 -11 -17 0 -17 -1 0 -13 9 -7 18 -21 20 -32
1 -10 9 -21 16 -23 7 -3 10 0 6 7 -4 6 -3 11 3 11 5 0 13 -4 16 -10 3 -5 14
-10 23 -10 11 0 7 6 -13 18 -16 11 -37 27 -45 37 -14 17 -13 18 3 12 24 -9 21
0 -4 14 -15 8 -19 8 -15 0z"/>
<path d="M243 543 c-7 -3 -12 -14 -12 -26 1 -17 2 -18 6 -4 6 21 12 21 35 0
11 -9 26 -18 35 -19 8 -2 12 1 7 4 -5 4 -20 17 -34 28 -14 12 -31 19 -37 17z"/>
<path d="M705 495 c-21 -18 -32 -21 -42 -13 -9 7 -13 7 -13 -1 0 -6 5 -11 11
-11 7 0 9 -10 7 -25 -3 -14 -4 -25 -2 -25 10 0 56 51 51 57 -4 3 0 15 10 25
22 25 14 22 -22 -7z"/>
<path d="M420 482 c0 -7 -8 -12 -17 -10 -26 5 -27 -27 -3 -78 11 -25 24 -60
27 -77 l7 -32 6 30 c4 18 1 38 -7 50 -7 11 -13 27 -13 37 0 10 -7 18 -15 18
-10 0 -15 9 -14 28 0 15 3 22 5 15 3 -7 12 -9 21 -6 10 4 14 2 10 -4 -7 -11
20 -74 36 -84 10 -7 72 25 83 42 3 5 -12 -1 -33 -13 -34 -20 -36 -20 -23 -3 8
10 11 16 5 13 -17 -9 -55 10 -55 28 0 10 8 27 18 38 16 20 16 20 -1 6 -16 -12
-20 -12 -28 1 -6 10 -9 11 -9 1z"/>
<path d="M622 469 c-21 -56 -22 -66 -8 -66 8 0 12 6 8 15 -3 10 -1 13 6 8 7
-4 12 -1 12 9 0 9 5 13 11 9 7 -4 7 2 -1 17 -18 34 -19 34 -28 8z"/>
<path d="M632 383 c-14 -19 -21 -23 -27 -13 -5 9 -4 11 3 6 7 -4 12 -2 12 3 0
18 -13 12 -47 -20 -18 -16 -33 -27 -33 -24 0 3 -12 -2 -27 -12 -24 -15 -23
-12 7 17 19 19 38 33 42 32 3 -1 12 6 20 16 11 15 11 16 -3 5 -9 -7 -19 -10
-22 -7 -3 4 -17 -3 -31 -14 -14 -10 -23 -22 -20 -25 3 -3 -4 -3 -17 0 -18 5
-21 3 -16 -12 5 -12 3 -16 -6 -12 -10 4 -13 -6 -11 -38 2 -41 16 -75 41 -102
32 -35 31 5 -2 53 -14 20 -22 40 -19 45 3 5 24 19 47 30 23 12 50 28 60 37 16
15 17 14 11 -1 -3 -9 -21 -26 -39 -37 -21 -13 -33 -28 -32 -40 2 -25 9 -25 38
0 16 13 19 19 9 20 -9 0 1 16 26 43 46 49 69 77 61 77 -3 0 -14 -12 -25 -27z"/>
<path d="M800 1005 c0 -10 8 -14 22 -12 32 5 35 27 4 27 -16 0 -26 -6 -26 -15z"/>
<path d="M1150 976 c0 -9 8 -20 18 -23 9 -4 20 -11 24 -17 6 -8 8 -8 8 0 0 6
-11 21 -25 34 -21 20 -25 21 -25 6z"/>
<path d="M1120 880 c-8 -5 -18 -6 -22 -4 -4 3 -8 -22 -8 -55 l0 -59 53 2 c57
2 59 4 37 27 -13 14 -16 14 -25 2 -7 -9 -21 -13 -36 -10 -23 4 -24 5 -2 12 14
4 23 18 28 41 3 19 10 32 16 29 5 -4 9 -4 9 -1 0 12 -37 24 -50 16z"/>
<path d="M990 540 c0 -5 -15 -17 -32 -26 -18 -10 -28 -19 -21 -21 7 -2 21 1
32 7 24 12 47 50 31 50 -5 0 -10 -4 -10 -10z"/>
<path d="M1072 158 c-9 -9 -67 -15 -185 -18 l-172 -6 175 -2 c96 -1 180 2 185
6 9 6 19 32 12 32 -2 0 -9 -6 -15 -12z"/>
</g>
</svg>
