<svg id="svg" version="1.1" xmlns="http://www.w3.org/2000/svg" xmlns:xlink="http://www.w3.org/1999/xlink" width="400" height="400" viewBox="0, 0, 400,400"><g id="svgg"><path id="path0" d="M207.748 34.993 C 193.716 38.068,176.468 59.177,153.078 101.902 C 144.116 118.272,140.078 124.198,139.315 122.100 C 139.215 121.825,138.788 121.600,138.367 121.600 C 137.898 121.600,137.600 121.323,137.600 120.888 C 137.600 120.497,137.240 119.917,136.800 119.600 C 136.360 119.283,136.000 118.703,136.000 118.312 C 136.000 117.920,135.820 117.600,135.600 117.600 C 135.380 117.600,135.200 117.240,135.200 116.800 C 135.200 116.360,135.020 116.000,134.800 116.000 C 134.580 116.000,134.400 115.640,134.400 115.200 C 134.400 114.760,134.220 114.400,134.000 114.400 C 133.780 114.400,133.600 114.040,133.600 113.600 C 133.600 113.160,133.420 112.800,133.200 112.800 C 132.980 112.800,132.800 112.440,132.800 112.000 C 132.800 111.560,132.620 111.200,132.400 111.200 C 132.180 111.200,132.000 110.840,132.000 110.400 C 132.000 109.960,131.820 109.600,131.600 109.600 C 131.380 109.600,131.200 109.240,131.200 108.800 C 131.200 108.360,131.020 108.000,130.800 108.000 C 130.580 108.000,130.400 107.640,130.400 107.200 C 130.400 106.760,130.220 106.400,130.000 106.400 C 129.780 106.400,129.600 106.040,129.600 105.600 C 129.600 105.160,129.420 104.800,129.200 104.800 C 128.980 104.800,128.800 104.440,128.800 104.000 C 128.800 103.560,128.620 103.200,128.400 103.200 C 128.180 103.200,128.000 102.922,128.000 102.582 C 128.000 101.798,126.225 100.000,125.452 100.000 C 125.130 100.000,124.784 99.775,124.683 99.500 C 124.537 99.100,124.394 99.100,123.970 99.500 C 123.679 99.775,123.149 100.000,122.793 100.000 C 118.729 100.000,93.416 121.854,54.400 159.047 C 29.817 182.481,28.846 183.593,27.952 189.337 C 26.266 200.164,38.709 214.682,63.400 230.699 C 71.240 235.784,76.305 239.000,81.200 242.001 C 88.442 246.440,94.398 250.969,93.483 251.341 C 93.109 251.493,93.110 251.544,93.487 251.568 C 93.756 251.586,93.878 251.852,93.760 252.160 C 93.642 252.467,93.747 252.844,93.993 252.996 C 94.631 253.390,92.421 255.199,91.300 255.200 C 90.805 255.200,90.400 255.380,90.400 255.600 C 90.400 255.820,90.080 256.000,89.688 256.000 C 89.297 256.000,88.717 256.360,88.400 256.800 C 88.082 257.241,87.365 257.600,86.800 257.600 C 86.235 257.600,85.518 257.959,85.200 258.400 C 84.883 258.840,84.343 259.200,84.000 259.200 C 83.657 259.200,83.117 259.560,82.800 260.000 C 82.483 260.440,81.903 260.800,81.512 260.800 C 80.926 260.800,80.800 261.148,80.800 262.760 C 80.800 269.827,92.886 284.269,141.421 335.200 C 175.801 371.277,176.527 371.961,181.553 372.999 C 197.075 376.207,214.431 355.962,247.192 296.430 C 251.011 289.491,254.400 284.498,254.400 285.813 C 254.400 285.984,254.760 285.798,255.200 285.400 C 255.965 284.708,256.000 284.707,256.000 285.391 C 256.000 285.784,256.355 286.414,256.788 286.790 C 257.781 287.651,260.000 291.831,260.000 292.841 C 260.000 293.258,260.180 293.600,260.400 293.600 C 260.620 293.600,260.800 293.878,260.800 294.217 C 260.800 294.556,261.160 295.220,261.600 295.692 C 262.040 296.164,262.400 296.787,262.400 297.075 C 262.400 297.364,262.580 297.600,262.800 297.600 C 263.020 297.600,263.200 297.960,263.200 298.400 C 263.200 298.840,263.380 299.200,263.600 299.200 C 263.820 299.200,264.000 299.520,264.000 299.912 C 264.000 300.303,264.360 300.883,264.800 301.200 C 265.240 301.517,265.600 302.097,265.600 302.488 C 265.600 302.880,265.780 303.200,266.000 303.200 C 266.220 303.200,266.400 303.560,266.400 304.000 C 266.400 304.440,266.580 304.800,266.800 304.800 C 267.020 304.800,267.200 305.076,267.200 305.413 C 267.200 306.373,269.949 308.933,270.519 308.505 C 270.784 308.306,271.810 307.897,272.800 307.594 C 274.561 307.056,277.817 305.080,280.985 302.627 C 292.726 293.537,307.304 280.659,330.593 258.803 C 365.534 226.012,365.616 225.926,367.030 220.405 C 370.174 208.134,355.611 191.999,323.000 171.622 C 316.395 167.495,309.112 162.777,308.800 162.422 C 308.690 162.298,307.610 161.454,306.400 160.547 C 302.778 157.834,300.628 155.200,302.035 155.200 C 302.236 155.200,302.400 154.922,302.400 154.582 C 302.400 153.826,304.163 152.000,304.894 152.000 C 305.185 152.000,305.683 151.640,306.000 151.200 C 306.317 150.760,306.897 150.400,307.288 150.400 C 307.680 150.400,308.000 150.220,308.000 150.000 C 308.000 149.780,308.320 149.600,308.712 149.600 C 309.103 149.600,309.683 149.240,310.000 148.800 C 310.317 148.360,310.827 148.000,311.132 148.000 C 311.438 148.000,312.513 147.163,313.522 146.140 L 315.356 144.280 313.981 141.640 C 309.548 133.124,299.615 121.194,276.035 96.067 C 270.186 89.834,263.522 82.724,261.226 80.267 C 253.135 71.609,221.942 39.607,220.282 38.260 C 217.405 35.928,215.756 35.263,211.200 34.601 C 210.650 34.521,209.097 34.697,207.748 34.993 M212.240 40.075 C 215.810 42.500,215.278 43.616,206.123 52.932 C 201.762 57.370,196.845 62.579,195.197 64.509 C 188.802 71.996,186.202 75.186,182.405 80.200 C 180.239 83.060,177.774 86.300,176.925 87.400 C 174.973 89.933,170.423 96.605,167.722 100.898 C 162.663 108.938,151.872 130.421,149.185 137.800 C 147.183 143.299,146.407 145.213,145.214 147.600 C 143.006 152.015,139.960 157.173,136.359 162.600 C 126.911 176.835,124.045 188.000,125.168 206.200 C 126.483 227.517,134.478 243.466,151.076 257.880 C 163.488 268.659,160.594 269.631,138.200 262.204 C 80.055 242.922,29.836 209.469,29.805 190.000 C 29.796 183.851,30.202 183.384,59.600 155.781 C 92.401 124.982,107.417 112.800,112.579 112.800 C 114.083 112.800,116.000 114.197,116.000 115.294 C 116.000 115.585,116.360 116.083,116.800 116.400 C 117.240 116.717,117.600 117.297,117.600 117.688 C 117.600 118.080,117.780 118.400,118.000 118.400 C 118.220 118.400,118.400 118.760,118.400 119.200 C 118.400 119.640,118.580 120.000,118.800 120.000 C 119.020 120.000,119.200 120.360,119.200 120.800 C 119.200 121.240,119.380 121.600,119.600 121.600 C 119.820 121.600,120.000 121.836,120.000 122.125 C 120.000 122.413,120.360 123.036,120.800 123.508 C 121.240 123.980,121.600 124.644,121.600 124.983 C 121.600 125.322,121.780 125.600,122.000 125.600 C 122.220 125.600,122.400 125.960,122.400 126.400 C 122.400 126.840,122.580 127.200,122.800 127.200 C 123.020 127.200,123.200 127.560,123.200 128.000 C 123.200 128.440,123.380 128.800,123.600 128.800 C 123.820 128.800,124.000 129.120,124.000 129.512 C 124.000 129.903,124.360 130.483,124.800 130.800 C 125.240 131.117,125.600 131.697,125.600 132.088 C 125.600 132.480,125.780 132.800,126.000 132.800 C 126.220 132.800,126.400 133.160,126.400 133.600 C 126.400 134.040,126.580 134.400,126.800 134.400 C 127.020 134.400,127.200 134.720,127.200 135.112 C 127.200 135.503,127.560 136.083,128.000 136.400 C 128.440 136.717,128.800 137.297,128.800 137.688 C 128.800 138.080,128.980 138.400,129.200 138.400 C 129.420 138.400,129.600 138.760,129.600 139.200 C 129.600 139.640,129.780 140.000,130.000 140.000 C 130.220 140.000,130.400 140.540,130.400 141.200 C 130.400 141.860,130.580 142.400,130.800 142.400 C 131.020 142.400,131.200 143.120,131.200 144.000 C 131.200 144.880,131.380 145.600,131.600 145.600 C 131.820 145.600,132.000 146.176,132.000 146.880 C 132.000 147.876,132.107 148.053,132.480 147.680 C 132.744 147.416,133.254 147.200,133.613 147.200 C 135.374 147.200,139.753 139.615,145.625 126.400 C 152.774 110.307,168.102 80.955,175.182 69.800 C 189.723 46.887,204.646 34.917,212.240 40.075 M207.400 133.612 C 231.614 137.035,256.901 158.723,264.753 182.800 C 272.666 207.068,268.523 226.852,250.951 248.700 C 230.651 273.938,194.387 282.676,168.687 268.522 C 141.365 253.474,127.480 232.424,126.523 204.600 C 125.942 187.718,129.085 178.919,141.740 162.000 C 157.374 141.098,182.749 130.127,207.400 133.612 M245.539 142.263 C 285.661 151.946,347.667 186.345,360.913 206.270 C 368.691 217.969,367.619 221.769,352.528 236.000 C 347.745 240.510,341.842 246.090,339.409 248.400 C 313.385 273.110,292.292 291.103,285.574 294.324 C 282.281 295.903,278.400 294.980,278.400 292.618 C 278.400 292.278,278.220 292.000,278.000 292.000 C 277.780 292.000,277.600 291.680,277.600 291.288 C 277.600 290.897,277.240 290.317,276.800 290.000 C 276.360 289.683,276.000 289.103,276.000 288.712 C 276.000 288.320,275.820 288.000,275.600 288.000 C 275.380 288.000,275.200 287.640,275.200 287.200 C 275.200 286.760,275.020 286.400,274.800 286.400 C 274.580 286.400,274.400 286.040,274.400 285.600 C 274.400 285.160,274.220 284.800,274.000 284.800 C 273.780 284.800,273.600 284.440,273.600 284.000 C 273.600 283.560,273.420 283.200,273.200 283.200 C 272.980 283.200,272.800 282.660,272.800 282.000 C 272.800 281.340,272.620 280.800,272.400 280.800 C 272.180 280.800,272.000 280.440,272.000 280.000 C 272.000 279.560,271.820 279.200,271.600 279.200 C 271.380 279.200,271.200 278.840,271.200 278.400 C 271.200 277.960,271.020 277.600,270.800 277.600 C 270.580 277.600,270.400 277.240,270.400 276.800 C 270.400 276.360,270.220 276.000,270.000 276.000 C 269.780 276.000,269.600 275.640,269.600 275.200 C 269.600 274.760,269.420 274.400,269.200 274.400 C 268.980 274.400,268.800 274.040,268.800 273.600 C 268.800 273.160,268.620 272.800,268.400 272.800 C 268.180 272.800,268.000 272.480,268.000 272.088 C 268.000 271.697,267.640 271.117,267.200 270.800 C 266.760 270.483,266.400 269.903,266.400 269.512 C 266.400 269.120,266.220 268.800,266.000 268.800 C 265.780 268.800,265.600 268.440,265.600 268.000 C 265.600 267.560,265.420 267.200,265.200 267.200 C 264.980 267.200,264.800 266.660,264.800 266.000 C 264.800 265.340,264.620 264.800,264.400 264.800 C 264.180 264.800,264.000 264.260,264.000 263.600 C 264.000 262.940,263.820 262.400,263.600 262.400 C 263.380 262.400,263.200 261.860,263.200 261.200 C 263.200 259.991,262.640 259.573,262.264 260.500 C 262.106 260.889,261.977 260.880,261.682 260.459 C 261.388 260.041,261.042 260.267,260.151 261.459 C 259.518 262.307,258.865 263.060,258.700 263.133 C 258.535 263.207,258.400 263.497,258.400 263.779 C 258.400 264.061,258.039 264.751,257.599 265.311 C 256.667 266.495,250.326 278.856,247.806 284.400 C 243.610 293.631,235.598 310.058,232.394 316.000 C 227.679 324.744,227.087 325.817,224.672 330.000 C 212.840 350.488,200.566 364.479,191.055 368.321 C 186.405 370.199,181.436 368.833,181.161 365.600 C 180.954 363.169,181.243 362.722,186.300 357.656 C 199.007 344.926,204.759 338.450,212.820 327.800 C 214.318 325.820,216.547 322.887,217.772 321.282 C 218.998 319.676,220.000 318.253,220.000 318.118 C 220.000 317.984,220.689 316.957,221.530 315.837 C 226.589 309.102,229.938 303.448,237.264 289.276 C 240.420 283.170,243.689 275.762,248.843 263.029 C 250.848 258.075,253.145 253.775,257.616 246.600 C 267.544 230.670,269.792 223.333,269.752 207.000 C 269.695 183.933,261.819 165.955,245.557 151.774 C 232.945 140.776,232.942 139.223,245.539 142.263 M166.124 162.810 C 160.688 163.914,161.052 161.302,160.681 201.800 C 160.506 220.940,160.328 238.580,160.285 241.000 C 160.143 249.054,161.007 249.652,173.388 250.073 C 192.972 250.740,215.109 250.656,219.021 249.901 C 235.748 246.674,245.143 237.718,244.734 225.389 C 244.456 217.012,240.521 212.255,230.854 208.607 C 223.769 205.933,223.375 203.248,229.400 198.692 C 241.898 189.241,239.731 172.209,225.571 168.604 C 224.157 168.244,220.660 167.156,217.800 166.186 C 211.457 164.035,206.636 163.220,198.000 162.837 C 188.646 162.422,168.117 162.405,166.124 162.810 M228.975 173.364 C 233.629 175.309,236.454 183.054,234.626 188.859 C 233.598 192.124,231.753 194.234,227.362 197.169 C 218.599 203.028,219.585 207.487,230.302 210.460 C 242.409 213.820,247.078 223.429,241.914 234.356 C 235.914 247.050,214.142 252.821,195.200 246.738 C 184.864 243.419,183.316 242.287,185.500 239.641 C 186.508 238.420,188.765 237.850,199.913 235.999 C 210.319 234.271,215.861 230.701,217.827 224.457 C 220.120 217.174,215.493 212.185,203.354 208.852 C 197.978 207.376,198.475 205.028,205.127 200.472 C 210.964 196.474,211.906 195.166,214.154 187.937 C 217.296 177.833,223.969 171.272,228.975 173.364 M206.016 179.310 C 210.781 181.346,211.432 189.546,207.139 193.455 C 202.580 197.606,189.473 199.345,186.062 196.251 C 182.164 192.715,183.000 181.778,187.342 179.506 C 190.230 177.995,202.633 177.865,206.016 179.310 M208.341 214.438 C 217.872 216.537,218.796 226.869,209.808 230.839 C 205.399 232.787,190.270 232.852,187.697 230.934 C 183.643 227.913,183.576 216.358,187.600 214.275 C 189.137 213.479,204.535 213.600,208.341 214.438 " stroke="none" fill="#2796d3" fill-rule="evenodd"></path><path id="path1" d="M204.986 39.366 C 189.755 44.401,167.665 76.789,145.625 126.400 C 139.753 139.615,135.374 147.200,133.613 147.200 C 133.254 147.200,132.744 147.416,132.480 147.680 C 132.107 148.053,132.000 147.876,132.000 146.880 C 132.000 146.176,131.820 145.600,131.600 145.600 C 131.380 145.600,131.200 144.880,131.200 144.000 C 131.200 143.120,131.020 142.400,130.800 142.400 C 130.580 142.400,130.400 141.860,130.400 141.200 C 130.400 140.540,130.220 140.000,130.000 140.000 C 129.780 140.000,129.600 139.640,129.600 139.200 C 129.600 138.760,129.420 138.400,129.200 138.400 C 128.980 138.400,128.800 138.080,128.800 137.688 C 128.800 137.297,128.440 136.717,128.000 136.400 C 127.560 136.083,127.200 135.503,127.200 135.112 C 127.200 134.720,127.020 134.400,126.800 134.400 C 126.580 134.400,126.400 134.040,126.400 133.600 C 126.400 133.160,126.220 132.800,126.000 132.800 C 125.780 132.800,125.600 132.480,125.600 132.088 C 125.600 131.697,125.240 131.117,124.800 130.800 C 124.360 130.483,124.000 129.903,124.000 129.512 C 124.000 129.120,123.820 128.800,123.600 128.800 C 123.380 128.800,123.200 128.440,123.200 128.000 C 123.200 127.560,123.020 127.200,122.800 127.200 C 122.580 127.200,122.400 126.840,122.400 126.400 C 122.400 125.960,122.220 125.600,122.000 125.600 C 121.780 125.600,121.600 125.322,121.600 124.983 C 121.600 124.644,121.240 123.980,120.800 123.508 C 120.360 123.036,120.000 122.413,120.000 122.125 C 120.000 121.836,119.820 121.600,119.600 121.600 C 119.380 121.600,119.200 121.240,119.200 120.800 C 119.200 120.360,119.020 120.000,118.800 120.000 C 118.580 120.000,118.400 119.640,118.400 119.200 C 118.400 118.760,118.220 118.400,118.000 118.400 C 117.780 118.400,117.600 118.080,117.600 117.688 C 117.600 117.297,117.240 116.717,116.800 116.400 C 116.360 116.083,116.000 115.585,116.000 115.294 C 116.000 114.197,114.083 112.800,112.579 112.800 C 107.417 112.800,92.401 124.982,59.600 155.781 C 30.202 183.384,29.796 183.851,29.805 190.000 C 29.836 209.469,80.055 242.922,138.200 262.204 C 160.594 269.631,163.488 268.659,151.076 257.880 C 134.478 243.466,126.483 227.517,125.168 206.200 C 124.045 188.000,126.911 176.835,136.359 162.600 C 139.960 157.173,143.006 152.015,145.214 147.600 C 146.407 145.213,147.183 143.299,149.185 137.800 C 151.872 130.421,162.663 108.938,167.722 100.898 C 170.423 96.605,174.973 89.933,176.925 87.400 C 177.774 86.300,180.239 83.060,182.405 80.200 C 186.202 75.186,188.802 71.996,195.197 64.509 C 196.845 62.579,201.762 57.370,206.123 52.932 C 214.329 44.583,214.621 44.162,213.859 41.798 C 213.140 39.570,208.345 38.255,204.986 39.366 M236.900 141.224 C 234.905 142.000,236.305 143.706,245.557 151.774 C 261.819 165.955,269.695 183.933,269.752 207.000 C 269.792 223.333,267.544 230.670,257.616 246.600 C 253.145 253.775,250.848 258.075,248.843 263.029 C 243.689 275.762,240.420 283.170,237.264 289.276 C 229.938 303.448,226.589 309.102,221.530 315.837 C 220.689 316.957,220.000 317.984,220.000 318.118 C 220.000 318.253,218.998 319.676,217.772 321.282 C 216.547 322.887,214.318 325.820,212.820 327.800 C 204.759 338.450,199.007 344.926,186.300 357.656 C 181.243 362.722,180.954 363.169,181.161 365.600 C 181.436 368.833,186.405 370.199,191.055 368.321 C 200.566 364.479,212.840 350.488,224.672 330.000 C 227.087 325.817,227.679 324.744,232.394 316.000 C 235.598 310.058,243.610 293.631,247.806 284.400 C 250.326 278.856,256.667 266.495,257.599 265.311 C 258.039 264.751,258.400 264.061,258.400 263.779 C 258.400 263.497,258.535 263.207,258.700 263.133 C 258.865 263.060,259.518 262.307,260.151 261.459 C 261.042 260.267,261.388 260.041,261.682 260.459 C 261.977 260.880,262.106 260.889,262.264 260.500 C 262.640 259.573,263.200 259.991,263.200 261.200 C 263.200 261.860,263.380 262.400,263.600 262.400 C 263.820 262.400,264.000 262.940,264.000 263.600 C 264.000 264.260,264.180 264.800,264.400 264.800 C 264.620 264.800,264.800 265.340,264.800 266.000 C 264.800 266.660,264.980 267.200,265.200 267.200 C 265.420 267.200,265.600 267.560,265.600 268.000 C 265.600 268.440,265.780 268.800,266.000 268.800 C 266.220 268.800,266.400 269.120,266.400 269.512 C 266.400 269.903,266.760 270.483,267.200 270.800 C 267.640 271.117,268.000 271.697,268.000 272.088 C 268.000 272.480,268.180 272.800,268.400 272.800 C 268.620 272.800,268.800 273.160,268.800 273.600 C 268.800 274.040,268.980 274.400,269.200 274.400 C 269.420 274.400,269.600 274.760,269.600 275.200 C 269.600 275.640,269.780 276.000,270.000 276.000 C 270.220 276.000,270.400 276.360,270.400 276.800 C 270.400 277.240,270.580 277.600,270.800 277.600 C 271.020 277.600,271.200 277.960,271.200 278.400 C 271.200 278.840,271.380 279.200,271.600 279.200 C 271.820 279.200,272.000 279.560,272.000 280.000 C 272.000 280.440,272.180 280.800,272.400 280.800 C 272.620 280.800,272.800 281.340,272.800 282.000 C 272.800 282.660,272.980 283.200,273.200 283.200 C 273.420 283.200,273.600 283.560,273.600 284.000 C 273.600 284.440,273.780 284.800,274.000 284.800 C 274.220 284.800,274.400 285.160,274.400 285.600 C 274.400 286.040,274.580 286.400,274.800 286.400 C 275.020 286.400,275.200 286.760,275.200 287.200 C 275.200 287.640,275.380 288.000,275.600 288.000 C 275.820 288.000,276.000 288.320,276.000 288.712 C 276.000 289.103,276.360 289.683,276.800 290.000 C 277.240 290.317,277.600 290.897,277.600 291.288 C 277.600 291.680,277.780 292.000,278.000 292.000 C 278.220 292.000,278.400 292.278,278.400 292.618 C 278.400 294.980,282.281 295.903,285.574 294.324 C 292.292 291.103,313.385 273.110,339.409 248.400 C 341.842 246.090,347.745 240.510,352.528 236.000 C 360.771 228.227,363.681 224.931,364.714 222.200 C 369.932 208.400,346.632 186.757,303.200 165.060 C 276.066 151.505,241.976 139.249,236.900 141.224 M223.956 173.598 C 220.383 175.487,216.059 181.812,214.154 187.937 C 211.906 195.166,210.964 196.474,205.127 200.472 C 198.475 205.028,197.978 207.376,203.354 208.852 C 215.493 212.185,220.120 217.174,217.827 224.457 C 215.861 230.701,210.319 234.271,199.913 235.999 C 188.765 237.850,186.508 238.420,185.500 239.641 C 183.316 242.287,184.864 243.419,195.200 246.738 C 214.142 252.821,235.914 247.050,241.914 234.356 C 247.078 223.429,242.409 213.820,230.302 210.460 C 219.585 207.487,218.599 203.028,227.362 197.169 C 233.497 193.068,235.488 189.645,235.115 183.838 C 234.623 176.170,228.947 170.961,223.956 173.598 " stroke="none" fill="#2e4053" fill-rule="evenodd"></path><path id="path2" d="M0.000 200.000 L 0.000 400.000 200.000 400.000 L 400.000 400.000 400.000 200.000 L 400.000 0.000 200.000 0.000 L 0.000 0.000 0.000 200.000 M213.781 35.006 C 215.777 35.335,218.122 36.509,220.282 38.260 C 221.942 39.607,253.135 71.609,261.226 80.267 C 263.522 82.724,270.186 89.834,276.035 96.067 C 299.615 121.194,309.548 133.124,313.981 141.640 L 315.356 144.280 313.522 146.140 C 312.513 147.163,311.438 148.000,311.132 148.000 C 310.827 148.000,310.317 148.360,310.000 148.800 C 309.683 149.240,309.103 149.600,308.712 149.600 C 308.320 149.600,308.000 149.780,308.000 150.000 C 308.000 150.220,307.680 150.400,307.288 150.400 C 306.897 150.400,306.317 150.760,306.000 151.200 C 305.683 151.640,305.185 152.000,304.894 152.000 C 304.163 152.000,302.400 153.826,302.400 154.582 C 302.400 154.922,302.236 155.200,302.035 155.200 C 300.628 155.200,302.778 157.834,306.400 160.547 C 307.610 161.454,308.690 162.298,308.800 162.422 C 309.112 162.777,316.395 167.495,323.000 171.622 C 355.611 191.999,370.174 208.134,367.030 220.405 C 365.616 225.926,365.534 226.012,330.593 258.803 C 307.304 280.659,292.726 293.537,280.985 302.627 C 277.817 305.080,274.561 307.056,272.800 307.594 C 271.810 307.897,270.784 308.306,270.519 308.505 C 269.949 308.933,267.200 306.373,267.200 305.413 C 267.200 305.076,267.020 304.800,266.800 304.800 C 266.580 304.800,266.400 304.440,266.400 304.000 C 266.400 303.560,266.220 303.200,266.000 303.200 C 265.780 303.200,265.600 302.880,265.600 302.488 C 265.600 302.097,265.240 301.517,264.800 301.200 C 264.360 300.883,264.000 300.303,264.000 299.912 C 264.000 299.520,263.820 299.200,263.600 299.200 C 263.380 299.200,263.200 298.840,263.200 298.400 C 263.200 297.960,263.020 297.600,262.800 297.600 C 262.580 297.600,262.400 297.364,262.400 297.075 C 262.400 296.787,262.040 296.164,261.600 295.692 C 261.160 295.220,260.800 294.556,260.800 294.217 C 260.800 293.878,260.620 293.600,260.400 293.600 C 260.180 293.600,260.000 293.258,260.000 292.841 C 260.000 291.831,257.781 287.651,256.788 286.790 C 256.355 286.414,256.000 285.784,256.000 285.391 C 256.000 284.707,255.965 284.708,255.200 285.400 C 254.760 285.798,254.400 285.984,254.400 285.813 C 254.400 284.498,251.011 289.491,247.192 296.430 C 214.431 355.962,197.075 376.207,181.553 372.999 C 176.527 371.961,175.801 371.277,141.421 335.200 C 105.106 297.093,89.458 279.554,83.985 270.826 C 80.902 265.909,79.642 260.800,81.512 260.800 C 81.903 260.800,82.483 260.440,82.800 260.000 C 83.117 259.560,83.657 259.200,84.000 259.200 C 84.343 259.200,84.883 258.840,85.200 258.400 C 85.518 257.959,86.235 257.600,86.800 257.600 C 87.365 257.600,88.082 257.241,88.400 256.800 C 88.717 256.360,89.297 256.000,89.688 256.000 C 90.080 256.000,90.400 255.820,90.400 255.600 C 90.400 255.380,90.805 255.200,91.300 255.200 C 92.421 255.199,94.631 253.390,93.993 252.996 C 93.747 252.844,93.642 252.467,93.760 252.160 C 93.878 251.852,93.756 251.586,93.487 251.568 C 93.110 251.544,93.109 251.493,93.483 251.341 C 94.398 250.969,88.442 246.440,81.200 242.001 C 76.305 239.000,71.240 235.784,63.400 230.699 C 38.709 214.682,26.266 200.164,27.952 189.337 C 28.846 183.593,29.817 182.481,54.400 159.047 C 93.416 121.854,118.729 100.000,122.793 100.000 C 123.149 100.000,123.679 99.775,123.970 99.500 C 124.394 99.100,124.537 99.100,124.683 99.500 C 124.784 99.775,125.130 100.000,125.452 100.000 C 126.225 100.000,128.000 101.798,128.000 102.582 C 128.000 102.922,128.180 103.200,128.400 103.200 C 128.620 103.200,128.800 103.560,128.800 104.000 C 128.800 104.440,128.980 104.800,129.200 104.800 C 129.420 104.800,129.600 105.160,129.600 105.600 C 129.600 106.040,129.780 106.400,130.000 106.400 C 130.220 106.400,130.400 106.760,130.400 107.200 C 130.400 107.640,130.580 108.000,130.800 108.000 C 131.020 108.000,131.200 108.360,131.200 108.800 C 131.200 109.240,131.380 109.600,131.600 109.600 C 131.820 109.600,132.000 109.960,132.000 110.400 C 132.000 110.840,132.180 111.200,132.400 111.200 C 132.620 111.200,132.800 111.560,132.800 112.000 C 132.800 112.440,132.980 112.800,133.200 112.800 C 133.420 112.800,133.600 113.160,133.600 113.600 C 133.600 114.040,133.780 114.400,134.000 114.400 C 134.220 114.400,134.400 114.760,134.400 115.200 C 134.400 115.640,134.580 116.000,134.800 116.000 C 135.020 116.000,135.200 116.360,135.200 116.800 C 135.200 117.240,135.380 117.600,135.600 117.600 C 135.820 117.600,136.000 117.920,136.000 118.312 C 136.000 118.703,136.360 119.283,136.800 119.600 C 137.240 119.917,137.600 120.497,137.600 120.888 C 137.600 121.323,137.898 121.600,138.367 121.600 C 138.788 121.600,139.215 121.825,139.315 122.100 C 140.078 124.198,144.116 118.272,153.078 101.902 C 178.091 56.212,198.367 32.735,211.200 34.601 C 211.750 34.681,212.912 34.863,213.781 35.006 M188.784 133.785 C 163.983 137.395,144.535 152.481,131.189 178.460 C 124.247 191.972,124.817 214.543,132.536 231.884 C 142.531 254.336,167.296 272.755,190.261 274.815 C 220.713 277.547,247.889 260.780,263.215 229.804 C 274.484 207.026,267.521 174.657,247.113 154.959 C 229.389 137.851,209.771 130.730,188.784 133.785 M198.000 162.837 C 206.636 163.220,211.457 164.035,217.800 166.186 C 220.660 167.156,224.157 168.244,225.571 168.604 C 231.481 170.109,234.550 172.853,236.323 178.216 C 239.101 186.621,236.950 192.983,229.400 198.692 C 223.375 203.248,223.769 205.933,230.854 208.607 C 240.521 212.255,244.456 217.012,244.734 225.389 C 245.143 237.718,235.748 246.674,219.021 249.901 C 215.109 250.656,192.972 250.740,173.388 250.073 C 161.007 249.652,160.143 249.054,160.285 241.000 C 160.328 238.580,160.506 220.940,160.681 201.800 C 161.031 163.609,160.897 165.477,163.404 163.834 C 165.540 162.435,179.704 162.026,198.000 162.837 M194.000 178.419 C 185.492 178.792,183.797 180.485,183.804 188.600 C 183.812 197.564,188.051 199.773,199.565 196.814 C 207.430 194.794,209.775 192.296,209.791 185.927 C 209.808 179.439,206.509 177.871,194.000 178.419 M187.600 214.275 C 183.576 216.358,183.643 227.913,187.697 230.934 C 190.270 232.852,205.399 232.787,209.808 230.839 C 217.380 227.494,218.233 218.931,211.341 215.457 C 208.063 213.804,190.225 212.916,187.600 214.275 " stroke="none" fill="#c8d9e9" fill-rule="evenodd"></path></g></svg>