<svg version="1.1" id="Layer_1" xmlns="http://www.w3.org/2000/svg" xmlns:xlink="http://www.w3.org/1999/xlink" x="0px" y="0px"
	 width="100%" viewBox="0 0 128 128" enable-background="new 0 0 128 128" xml:space="preserve">
<path fill="#FEFFFF" opacity="1.000000" stroke="none" 
	d="
M72.000000,129.000000 
	C48.000000,129.000000 24.500000,129.000000 1.000000,129.000000 
	C1.000000,86.333336 1.000000,43.666668 1.000000,1.000000 
	C43.666668,1.000000 86.333336,1.000000 129.000000,1.000000 
	C129.000000,43.666668 129.000000,86.333336 129.000000,129.000000 
	C110.166664,129.000000 91.333336,129.000000 72.000000,129.000000 
M96.996323,93.496254 
	C103.257896,87.278229 109.587791,81.127075 115.759880,74.821472 
	C120.892372,69.577942 121.361946,64.057182 116.809769,59.366753 
	C102.204239,44.317616 87.427078,29.435192 72.758911,14.446583 
	C69.972549,11.599351 66.948540,11.454485 64.543587,14.301408 
	C60.602421,18.966852 57.071964,23.991983 53.552002,28.994675 
	C51.989960,31.214699 50.875923,33.749943 49.036255,37.090454 
	C46.794037,33.416737 45.135742,30.699745 43.379711,27.822617 
	C42.654846,28.287607 42.031555,28.551455 41.585129,28.993795 
	C31.649837,38.838093 21.626877,48.597481 11.859457,58.606129 
	C6.920654,63.666904 7.196018,68.618080 12.395050,73.962112 
	C26.555063,88.517044 40.870029,102.921539 54.989029,117.515831 
	C58.303558,120.941933 61.327484,120.683502 64.505508,117.814751 
	C66.221077,116.266144 67.891464,114.549561 69.137909,112.621513 
	C72.736343,107.055290 76.109291,101.343285 79.683792,95.503906 
	C81.389565,98.725845 83.107651,101.971046 85.225555,105.971443 
	C89.202164,101.745834 92.848930,97.870728 96.996323,93.496254 
z"/>
<path fill="#6CD0EF" opacity="1.000000" stroke="none" 
	d="
M96.746010,93.745941 
	C92.848930,97.870728 89.202164,101.745834 85.225555,105.971443 
	C83.107651,101.971046 81.389565,98.725845 79.683792,95.503906 
	C76.109291,101.343285 72.736343,107.055290 69.137909,112.621513 
	C67.891464,114.549561 66.221077,116.266144 64.505508,117.814751 
	C61.327484,120.683502 58.303558,120.941933 54.989029,117.515831 
	C40.870029,102.921539 26.555063,88.517044 12.395050,73.962112 
	C7.196018,68.618080 6.920654,63.666904 11.859457,58.606129 
	C21.626877,48.597481 31.649837,38.838093 41.585129,28.993795 
	C42.031555,28.551455 42.654846,28.287607 43.379711,27.822617 
	C45.135742,30.699745 46.794037,33.416737 49.036255,37.090454 
	C50.875923,33.749943 51.989960,31.214699 53.552002,28.994675 
	C57.071964,23.991983 60.602421,18.966852 64.543587,14.301408 
	C66.948540,11.454485 69.972549,11.599351 72.758911,14.446583 
	C87.427078,29.435192 102.204239,44.317616 116.809769,59.366753 
	C121.361946,64.057182 120.892372,69.577942 115.759880,74.821472 
	C109.587791,81.127075 103.257896,87.278229 96.746010,93.745941 
M116.103378,66.310951 
	C116.199211,66.358597 116.295052,66.406242 116.390884,66.453888 
	C116.268219,66.296494 116.145561,66.139091 115.815575,65.536629 
	C115.615776,65.260468 115.352142,65.075058 114.817535,64.535378 
	C114.617760,64.259537 114.354431,64.073761 113.819756,63.533615 
	C113.619781,63.258438 113.356750,63.072418 112.818848,62.531826 
	C112.614906,62.258293 112.348595,62.075752 111.804756,61.543404 
	C111.599525,61.273064 111.334198,61.089642 110.679672,60.496025 
	C110.122612,60.327026 109.565544,60.158028 108.802536,59.544662 
	C108.600769,59.271164 108.336716,59.086926 107.681610,58.494724 
	C107.124222,58.325829 106.566826,58.156933 105.897728,57.698330 
	C105.803741,57.650181 105.709747,57.602032 105.615761,57.553879 
	C105.739990,57.705643 105.864220,57.857403 106.317886,58.506283 
	C106.875832,58.674435 107.433769,58.842587 108.198563,59.454376 
	C108.400330,59.727386 108.664017,59.911953 109.319267,60.505459 
	C109.877060,60.673466 110.434860,60.841473 111.195030,61.457535 
	C111.393532,61.735722 111.656677,61.923145 112.191177,62.464718 
	C112.388161,62.743275 112.650093,62.931469 113.192902,63.467793 
	C113.391472,63.743553 113.653679,63.929676 114.194710,64.465279 
	C114.393097,64.741440 114.655396,64.927528 115.195946,65.463242 
	C115.394180,65.739624 115.656448,65.925827 116.103378,66.310951 
M103.104614,56.294853 
	C103.196922,56.343479 103.289223,56.392101 103.381531,56.440723 
	C103.256439,56.292164 103.131340,56.143604 102.761948,55.575047 
	C102.402962,55.592430 102.043976,55.609810 101.684990,55.627193 
	C102.121674,55.753574 102.558357,55.879955 103.104614,56.294853 
M41.941395,62.920002 
	C41.920414,64.583466 41.840622,66.248596 41.887848,67.910126 
	C42.234665,80.111778 53.924988,90.096954 66.307449,88.790962 
	C79.188866,87.432335 88.838402,74.880280 86.368889,62.695148 
	C84.206291,52.024391 75.918274,44.394112 65.993767,43.937008 
	C53.819065,43.376263 45.535904,49.639427 41.941395,62.920002 
z"/>
<path fill="#F8FDFE" opacity="1.000000" stroke="none" 
	d="
M41.988728,62.486099 
	C45.535904,49.639427 53.819065,43.376263 65.993767,43.937008 
	C75.918274,44.394112 84.206291,52.024391 86.368889,62.695148 
	C88.838402,74.880280 79.188866,87.432335 66.307449,88.790962 
	C53.924988,90.096954 42.234665,80.111778 41.887848,67.910126 
	C41.840622,66.248596 41.920414,64.583466 41.988728,62.486099 
M67.214104,81.009499 
	C67.713081,80.994041 68.213036,80.993439 68.710884,80.960800 
	C73.096481,80.673309 77.205078,79.449913 78.748505,74.941017 
	C80.351883,70.256958 75.935379,68.860725 73.241936,66.633446 
	C73.143768,66.552269 73.154938,66.338882 73.115150,66.187111 
	C74.958626,63.521839 77.134254,59.549206 75.998199,57.990913 
	C74.175354,55.490566 70.309860,53.920231 67.032608,53.188519 
	C63.379192,52.372818 59.414547,53.025673 55.592880,52.862949 
	C53.004093,52.752720 51.987949,53.803749 52.060242,56.355648 
	C52.159149,59.847141 52.005703,63.345306 52.079216,66.838112 
	C52.173080,71.297958 50.686539,77.635422 52.993130,79.719650 
	C55.648190,82.118759 61.701492,80.757072 67.214104,81.009499 
z"/>
<path fill="#8ED7EF" opacity="1.000000" stroke="none" 
	d="
M106.009438,57.988033 
	C106.566826,58.156933 107.124222,58.325829 107.840797,58.747414 
	C107.999985,59.000099 107.991714,59.010738 107.991714,59.010738 
	C107.433769,58.842587 106.875832,58.674435 106.158966,58.253075 
	C106.000046,57.999870 106.009438,57.988033 106.009438,57.988033 
z"/>
<path fill="#8ED7EF" opacity="1.000000" stroke="none" 
	d="
M109.008484,59.989025 
	C109.565544,60.158028 110.122612,60.327026 110.839798,60.748077 
	C110.999916,61.000126 110.992653,61.009480 110.992653,61.009480 
	C110.434860,60.841473 109.877060,60.673466 109.159698,60.252621 
	C109.000137,59.999783 109.008484,59.989025 109.008484,59.989025 
z"/>
<path fill="#8ED7EF" opacity="1.000000" stroke="none" 
	d="
M102.995041,56.006336 
	C102.558357,55.879955 102.121674,55.753574 101.684990,55.627193 
	C102.043976,55.609810 102.402962,55.592430 102.880974,55.787521 
	C103.000000,56.000000 102.995041,56.006336 102.995041,56.006336 
z"/>
<path fill="#8ED7EF" opacity="1.000000" stroke="none" 
	d="
M103.003120,55.997520 
	C103.131340,56.143604 103.256439,56.292164 103.381531,56.440723 
	C103.289223,56.392101 103.196922,56.343479 103.049828,56.150597 
	C102.995041,56.006336 103.000000,56.000000 103.003120,55.997520 
z"/>
<path fill="#8ED7EF" opacity="1.000000" stroke="none" 
	d="
M105.994247,58.004517 
	C105.864220,57.857403 105.739990,57.705643 105.615761,57.553879 
	C105.709747,57.602032 105.803741,57.650181 105.953583,57.843182 
	C106.009438,57.988033 106.000046,57.999870 105.994247,58.004517 
z"/>
<path fill="#8ED7EF" opacity="1.000000" stroke="none" 
	d="
M108.005180,58.996021 
	C108.336716,59.086926 108.600769,59.271164 108.905510,59.766846 
	C109.008484,59.989025 109.000137,59.999783 108.994881,60.003929 
	C108.664017,59.911953 108.400330,59.727386 108.095139,59.232559 
	C107.991714,59.010738 107.999985,59.000099 108.005180,58.996021 
z"/>
<path fill="#8ED7EF" opacity="1.000000" stroke="none" 
	d="
M111.004349,60.996635 
	C111.334198,61.089642 111.599525,61.273064 111.902397,61.771866 
	C112.000038,62.000328 111.984482,62.019814 111.984482,62.019814 
	C111.656677,61.923145 111.393532,61.735722 111.093842,61.233505 
	C110.992653,61.009480 110.999916,61.000126 111.004349,60.996635 
z"/>
<path fill="#8ED7EF" opacity="1.000000" stroke="none" 
	d="
M112.976959,63.029305 
	C112.650093,62.931469 112.388161,62.743275 112.087830,62.242264 
	C111.984482,62.019814 112.000038,62.000328 112.009964,61.992264 
	C112.348595,62.075752 112.614906,62.258293 112.910065,62.765892 
	C113.001289,62.999954 112.976959,63.029305 112.976959,63.029305 
z"/>
<path fill="#8ED7EF" opacity="1.000000" stroke="none" 
	d="
M113.015976,62.987755 
	C113.356750,63.072418 113.619781,63.258438 113.910263,63.766846 
	C114.000771,64.000076 113.979523,64.026161 113.979523,64.026161 
	C113.653679,63.929676 113.391472,63.743553 113.084930,63.248550 
	C112.976959,63.029305 113.001289,62.999954 113.015976,62.987755 
z"/>
<path fill="#8ED7EF" opacity="1.000000" stroke="none" 
	d="
M114.981606,65.023544 
	C114.655396,64.927528 114.393097,64.741440 114.087112,64.245720 
	C113.979523,64.026161 114.000771,64.000076 114.014160,63.989067 
	C114.354431,64.073761 114.617760,64.259537 114.909210,64.767593 
	C115.000885,64.999809 114.981606,65.023544 114.981606,65.023544 
z"/>
<path fill="#8ED7EF" opacity="1.000000" stroke="none" 
	d="
M115.012787,64.990105 
	C115.352142,65.075058 115.615776,65.260468 115.908157,65.768219 
	C116.000748,65.999817 115.982750,66.021858 115.982750,66.021858 
	C115.656448,65.925827 115.394180,65.739624 115.088776,65.243393 
	C114.981606,65.023544 115.000885,64.999809 115.012787,64.990105 
z"/>
<path fill="#8ED7EF" opacity="1.000000" stroke="none" 
	d="
M116.011826,65.990753 
	C116.145561,66.139091 116.268219,66.296494 116.390884,66.453888 
	C116.295052,66.406242 116.199211,66.358597 116.043060,66.166405 
	C115.982750,66.021858 116.000748,65.999817 116.011826,65.990753 
z"/>
<path fill="#6FD1F0" opacity="1.000000" stroke="none" 
	d="
M66.746506,81.019119 
	C61.701492,80.757072 55.648190,82.118759 52.993130,79.719650 
	C50.686539,77.635422 52.173080,71.297958 52.079216,66.838112 
	C52.005703,63.345306 52.159149,59.847141 52.060242,56.355648 
	C51.987949,53.803749 53.004093,52.752720 55.592880,52.862949 
	C59.414547,53.025673 63.379192,52.372818 67.032608,53.188519 
	C70.309860,53.920231 74.175354,55.490566 75.998199,57.990913 
	C77.134254,59.549206 74.958626,63.521839 73.115150,66.187111 
	C73.154938,66.338882 73.143768,66.552269 73.241936,66.633446 
	C75.935379,68.860725 80.351883,70.256958 78.748505,74.941017 
	C77.205078,79.449913 73.096481,80.673309 68.710884,80.960800 
	C68.213036,80.993439 67.713081,80.994041 66.746506,81.019119 
M68.465065,69.471260 
	C65.865173,69.339775 63.265282,69.208298 59.501324,69.017952 
	C60.278328,71.714630 60.582687,75.046791 61.396946,75.176437 
	C63.990879,75.589432 66.804123,74.933548 69.436600,74.294769 
	C69.686142,74.234222 69.261665,71.395943 68.465065,69.471260 
M67.718742,59.403320 
	C65.375542,59.159847 63.020966,58.743122 60.703720,58.895195 
	C60.418476,58.913914 60.332546,61.969856 60.111057,64.017693 
	C63.780602,63.409878 68.146378,65.990105 67.718742,59.403320 
z"/>
<path fill="#EBF8FD" opacity="1.000000" stroke="none" 
	d="
M68.807587,69.659256 
	C69.261665,71.395943 69.686142,74.234222 69.436600,74.294769 
	C66.804123,74.933548 63.990879,75.589432 61.396946,75.176437 
	C60.582687,75.046791 60.278328,71.714630 59.501324,69.017952 
	C63.265282,69.208298 65.865173,69.339775 68.807587,69.659256 
z"/>
<path fill="#EFFAFD" opacity="1.000000" stroke="none" 
	d="
M67.957947,59.691265 
	C68.146378,65.990105 63.780602,63.409878 60.111057,64.017693 
	C60.332546,61.969856 60.418476,58.913914 60.703720,58.895195 
	C63.020966,58.743122 65.375542,59.159847 67.957947,59.691265 
z"/>
</svg>