<?xml version="1.0" encoding="UTF-8"?>
<!DOCTYPE svg PUBLIC "-//W3C//DTD SVG 1.1//EN" "http://www.w3.org/Graphics/SVG/1.1/DTD/svg11.dtd">
<svg xmlns="http://www.w3.org/2000/svg" version="1.1" width="128px" height="128px" style="shape-rendering:geometricPrecision; text-rendering:geometricPrecision; image-rendering:optimizeQuality; fill-rule:evenodd; clip-rule:evenodd" xmlns:xlink="http://www.w3.org/1999/xlink">
<g><path style="opacity:0.862" fill="#d3dde6" d="M 69.5,10.5 C 64.5779,10.8995 60.7445,13.2328 58,17.5C 54.5,23.1667 51,28.8333 47.5,34.5C 44.8202,32.1372 43.4868,29.1372 43.5,25.5C 42.5,25.5 41.5,25.5 40.5,25.5C 45.2969,20.202 50.2969,15.0354 55.5,10C 60.4051,6.57751 65.0718,6.74418 69.5,10.5 Z"/></g>
<g><path style="opacity:0.978" fill="#6bceed" d="M 69.5,10.5 C 83.8333,24.1667 97.8333,38.1667 111.5,52.5C 112.757,55.4274 114.757,57.7607 117.5,59.5C 118.338,59.8417 118.672,60.5084 118.5,61.5C 118.492,64.5448 118.159,67.5448 117.5,70.5C 106.854,82.2293 95.5202,93.5626 83.5,104.5C 82.1595,100.683 80.3262,97.0167 78,93.5C 74.1998,102.276 69.0331,110.11 62.5,117C 60.3885,117.845 58.3885,118.678 56.5,119.5C 41.8333,105.5 27.5,91.1667 13.5,76.5C 11.9128,73.7318 10.0795,71.0652 8,68.5C 7.34115,65.1119 7.50782,61.7786 8.5,58.5C 18.5286,46.8059 29.1953,35.8059 40.5,25.5C 41.5,25.5 42.5,25.5 43.5,25.5C 43.4868,29.1372 44.8202,32.1372 47.5,34.5C 51,28.8333 54.5,23.1667 58,17.5C 60.7445,13.2328 64.5779,10.8995 69.5,10.5 Z"/></g>
<g><path style="opacity:1" fill="#d2dde6" d="M 56.5,42.5 C 81.0118,42.8774 89.1784,54.544 81,77.5C 72.0004,87.3061 61.5004,89.1395 49.5,83C 39.0288,72.8178 37.8621,61.6511 46,49.5C 49.3075,46.7711 52.8075,44.4377 56.5,42.5 Z"/></g>
<g><path style="opacity:0.999" fill="#6eceed" d="M 50.5,51.5 C 56.5092,51.3338 62.5092,51.5005 68.5,52C 74.295,52.7819 76.4617,55.9486 75,61.5C 73.9264,62.6184 72.7598,63.6184 71.5,64.5C 73.0294,66.1881 74.8627,67.5214 77,68.5C 78.4499,73.7683 76.6165,77.2683 71.5,79C 64.5079,79.4996 57.5079,79.6663 50.5,79.5C 50.5,70.1667 50.5,60.8333 50.5,51.5 Z"/></g>
<g><path style="opacity:0.588" fill="#c0dae7" d="M 111.5,52.5 C 114.243,54.2393 116.243,56.5726 117.5,59.5C 114.757,57.7607 112.757,55.4274 111.5,52.5 Z"/></g>
<g><path style="opacity:1" fill="#cbdce6" d="M 58.5,56.5 C 60.8568,56.3367 63.1902,56.5034 65.5,57C 66.8333,58.6667 66.8333,60.3333 65.5,62C 63.1902,62.4966 60.8568,62.6633 58.5,62.5C 58.5,60.5 58.5,58.5 58.5,56.5 Z"/></g>
<g><path style="opacity:0.304" fill="#d6dfe5" d="M 118.5,61.5 C 119.152,62.4486 119.486,63.6153 119.5,65C 119.607,67.2206 118.94,69.0539 117.5,70.5C 118.159,67.5448 118.492,64.5448 118.5,61.5 Z"/></g>
<g><path style="opacity:0.999" fill="#d2dde6" d="M 58.5,68.5 C 61.8333,68.5 65.1667,68.5 68.5,68.5C 68.7135,70.1439 68.3802,71.6439 67.5,73C 64.5184,73.498 61.5184,73.6646 58.5,73.5C 58.5,71.8333 58.5,70.1667 58.5,68.5 Z"/></g>
<g><path style="opacity:0.408" fill="#c4dbe7" d="M 8.5,58.5 C 7.50782,61.7786 7.34115,65.1119 8,68.5C 10.0795,71.0652 11.9128,73.7318 13.5,76.5C 6.02042,71.7708 4.35375,65.7708 8.5,58.5 Z"/></g>
<g><path style="opacity:0.888" fill="#d2dde6" d="M 83.5,104.5 C 78.5761,112.601 71.7428,118.268 63,121.5C 60.5161,121.503 58.3495,120.837 56.5,119.5C 58.3885,118.678 60.3885,117.845 62.5,117C 69.0331,110.11 74.1998,102.276 78,93.5C 80.3262,97.0167 82.1595,100.683 83.5,104.5 Z"/></g>
</svg>
